<svg xmlns="http://www.w3.org/2000/svg" width="102" height="102" viewBox="0 0 102 102"><g transform="translate(-163 -338)"><circle cx="51" cy="51" r="51" transform="translate(163 338)" fill="#f6faff"/><g transform="translate(182.42 363.868)"><g transform="translate(37.576 36.695)"><path d="M557.6,421.7a8.915,8.915,0,0,1,.711-.844,3.9,3.9,0,0,1-1.7,3.067,2.777,2.777,0,0,1-1.613.826,4.7,4.7,0,0,1,.486-.622C556.219,423.347,556.946,422.555,557.6,421.7Z" transform="translate(-555 -420.86)" fill="#fff"/></g><g transform="translate(0 0)"><path d="M242.672,89.656a23.862,23.862,0,0,1,3.1-.221,16.416,16.416,0,0,1,8.533,1.93,7.438,7.438,0,0,1,2.161,1.829,6.669,6.669,0,0,1,1.453,4.157,11.745,11.745,0,0,1-2.111,6.828,18.019,18.019,0,0,1-3.677,4.066,17.465,17.465,0,0,1-4.835,2.711,22.688,22.688,0,0,1-10.385,1.475,7.879,7.879,0,0,1-4.844-2.258,3.28,3.28,0,0,1-.952-1.748c-.054-.237.156-.4.276-.568.5.347.881.827,1.387,1.164a8.043,8.043,0,0,0,4.691,1.262,19.112,19.112,0,0,0,4.361-.6,19.471,19.471,0,0,0,9.948-5.886,10.956,10.956,0,0,0,2.337-4.188,4.536,4.536,0,0,0-.669-4.063,7.179,7.179,0,0,0-4.245-1.879,19.483,19.483,0,0,0-3.769-.14,33.413,33.413,0,0,0-13.954,4.7,35.416,35.416,0,0,0-6.959,4.886,14.826,14.826,0,0,0-2.933,3.828,7.961,7.961,0,0,0-.9,3.586,6.6,6.6,0,0,0,1.527,4.067,28.763,28.763,0,0,0,5.269,4.7,38.2,38.2,0,0,1,3.774,3.248c2.077-1.11,4.123-2.28,6.206-3.379a2.127,2.127,0,0,0,.763-.674,11.858,11.858,0,0,1,3.1-2.764,5.151,5.151,0,0,1,2.675-.843,1.975,1.975,0,0,1,1.83,1.333,6.8,6.8,0,0,1,.131,2.864,1.706,1.706,0,0,1,1.352-.24c.4.122.881.411.865.88a3.642,3.642,0,0,1-.206,1.084q-.633,2.235-1.165,4.5a11.317,11.317,0,0,0-.417,2.837,1.789,1.789,0,0,0,.134.537,6.987,6.987,0,0,0,.908-1.537c.948-1.859,1.754-3.785,2.624-5.681.908-2.047,1.829-4.088,2.706-6.147.293-.694.4-1.446.626-2.159.108-.406.578-.506.932-.6a6,6,0,0,1,2.563-.061c.309.111.81.318.66.734a16.2,16.2,0,0,0-.76,2.771,9.5,9.5,0,0,0,.152,2.765,8,8,0,0,0,.9,2.046,7.3,7.3,0,0,0,.6-.937,63.965,63.965,0,0,0,3.16-5.911c.428-.919.471-1.961.879-2.886.113-.306.464-.384.738-.483a7.381,7.381,0,0,1,2.156-.187,1.357,1.357,0,0,1,1.242.577,2.583,2.583,0,0,1-.19.82,8.779,8.779,0,0,0-.638,3.27,7.6,7.6,0,0,0,.653,2.91c.3.579.552,1.185.908,1.733a14.017,14.017,0,0,1,6.1-1.4A10.577,10.577,0,0,1,280.2,120.5a7.015,7.015,0,0,1,2.5,4.242,4.383,4.383,0,0,1-.658,3.243,4.863,4.863,0,0,1-2.306,1.8,2.367,2.367,0,0,1-.678.064c0-.157-.107-.365.056-.476.238-.213.525-.36.776-.556a3.532,3.532,0,0,0,1.471-2.566,4.613,4.613,0,0,0-1.649-3.509,9.022,9.022,0,0,0-5.371-2.139,12.7,12.7,0,0,0-6.231.784,6.606,6.606,0,0,1,.423,3.5,6.042,6.042,0,0,1-2.679,3.3,10.969,10.969,0,0,1-2.745,1.239,1.91,1.91,0,0,1-1.79-.236,1.87,1.87,0,0,1-.548-1.6,7.087,7.087,0,0,1,1.507-3.645,11.285,11.285,0,0,1,1.838-2.031c.177-.166.412-.3.516-.524-.2-.531-.5-1.021-.716-1.547a17.886,17.886,0,0,1-1.057-3.685,1.976,1.976,0,0,0-.261.352,52.952,52.952,0,0,1-3.075,5.352,9.114,9.114,0,0,0-.646,1,1.9,1.9,0,0,0,.2.711,5.739,5.739,0,0,1,0,4.713,6.46,6.46,0,0,1-3.67,2.859,7.249,7.249,0,0,1-3.431.524c-.478-.031-1.064-.328-1.082-.866a1.946,1.946,0,0,1,.483-1.374c1.4-1.832,3.027-3.494,4.337-5.4.072-.1.131-.227.043-.342a20.009,20.009,0,0,1-1.3-2.9,24.31,24.31,0,0,1-.667-2.728c-.885,2.166-1.779,4.329-2.813,6.428-.734,1.535-1.55,3.027-2.342,4.532a9.311,9.311,0,0,1-2.457,3.3,1.588,1.588,0,0,1-1.931.006,2.409,2.409,0,0,1-.713-1.281,12.187,12.187,0,0,1-.107-3.477c-.742,1.513-1.318,3.114-2.207,4.555a3.6,3.6,0,0,1-1.282,1.258,2.575,2.575,0,0,1-2.28-.125,3.535,3.535,0,0,1-1.043-1.263,10.586,10.586,0,0,1-1.22-4.281,17.845,17.845,0,0,1,.863-5.615c-1.222.758-2.5,1.435-3.729,2.178a11.36,11.36,0,0,1,.6,6.619,10.906,10.906,0,0,1-2.28,4.8,11.147,11.147,0,0,1-4.956,3.467,9.422,9.422,0,0,1-5.54.237,3.384,3.384,0,0,1-1.993-1.881,6.129,6.129,0,0,1-.3-4.216,7.362,7.362,0,0,1,1.46-2.85,19.717,19.717,0,0,1,4.307-3.668,49.615,49.615,0,0,1,4.957-2.851,19.644,19.644,0,0,0-2.532-1.944,55.11,55.11,0,0,1-6.5-4.909,20.485,20.485,0,0,1-2.134-2.294,10.094,10.094,0,0,1-1.788-3.531,4.457,4.457,0,0,1-.188-1.711,13.4,13.4,0,0,1,2.985-6.551,22.2,22.2,0,0,1,1.87-2.121,40.488,40.488,0,0,1,11.814-7.888,37.33,37.33,0,0,1,10.365-3.315m.8,28.018a3.934,3.934,0,0,0-2.191,1.537,12.484,12.484,0,0,0-2.6,9.163,2.1,2.1,0,0,0,.53,1.237c.326.2.606-.164.785-.394a17.363,17.363,0,0,0,1.529-3.227,54.066,54.066,0,0,0,2.352-6.835,4.613,4.613,0,0,0,.149-1.092.466.466,0,0,0-.551-.389m21.523,5.763a7.872,7.872,0,0,0-1.7,2.407,4.07,4.07,0,0,0-.519,1.918,2.367,2.367,0,0,0,.608-.172,3.588,3.588,0,0,0,1.673-1.429,3.938,3.938,0,0,0,.376-3.027,2.368,2.368,0,0,0-.442.3m-35.75,2.781a34.427,34.427,0,0,0-4.432,3.1,13.658,13.658,0,0,0-1.566,1.533,7.041,7.041,0,0,0-1.437,2.882,2.976,2.976,0,0,0,.084,1.79,1.28,1.28,0,0,0,.985.75,5.113,5.113,0,0,0,3.239-.775,8.941,8.941,0,0,0,4.073-5.116,8.821,8.821,0,0,0,.021-4.686,6,6,0,0,0-.968.524m26.549.751c-.654.851-1.382,1.643-2.115,2.427a4.705,4.705,0,0,0-.486.622,2.777,2.777,0,0,0,1.613-.826,3.9,3.9,0,0,0,1.7-3.067A8.92,8.92,0,0,0,255.794,126.969Z" transform="translate(-215.617 -89.43)" fill="#cb6799"/></g></g></g></svg>