<svg xmlns="http://www.w3.org/2000/svg" width="102" height="102" viewBox="0 0 102 102"><g transform="translate(-290 -477)"><circle cx="51" cy="51" r="51" transform="translate(290 477)" fill="#f6faff"/><g transform="translate(303.674 505.585)"><path d="M288.013,232.545a24.32,24.32,0,0,1,6.638-.784,20.916,20.916,0,0,1,9.465,2.208,24.576,24.576,0,0,1,6.361,4.939,52.6,52.6,0,0,0,3.869,3.835,10.2,10.2,0,0,0,2.882,1.569,11.405,11.405,0,0,0,5.422.74,11.535,11.535,0,0,0,6.078-2.784,18.875,18.875,0,0,0,2.814-3.03,21.417,21.417,0,0,1-2.637,6.46,15.932,15.932,0,0,1-11.213,8.058,22.064,22.064,0,0,1-18.078-3.991c-1.209-.979-2.252-2.139-3.364-3.222a24.033,24.033,0,0,0-6.419-4.929,9.513,9.513,0,0,0-5.031-.934,11.711,11.711,0,0,0-6.224,2.584,14.361,14.361,0,0,0-3.106,3.377,19.715,19.715,0,0,1,2.218-6.171,16.56,16.56,0,0,1,4.485-5.128A17.222,17.222,0,0,1,288.013,232.545Z" transform="translate(-256.889 -231.759)" fill="#07b6d5"/><path d="M58.289,512.919a22.79,22.79,0,0,1,10.639,1.548,21.59,21.59,0,0,1,6.52,4.451c1.265,1.2,2.421,2.505,3.655,3.734a10.863,10.863,0,0,0,2.732,2.1,12.678,12.678,0,0,0,5.487,1.449,10.377,10.377,0,0,0,4.521-.96,15.354,15.354,0,0,0,5.753-4.932,21.483,21.483,0,0,1-3.066,7.147,16.346,16.346,0,0,1-7.989,6.611,23.561,23.561,0,0,1-7.8,1.276,22.093,22.093,0,0,1-13.115-4.531c-1.2-.987-2.25-2.147-3.364-3.231a23.683,23.683,0,0,0-6.447-4.92,9.486,9.486,0,0,0-4.95-.9,12.344,12.344,0,0,0-7.726,3.939,14.831,14.831,0,0,0-1.612,2.006,18.839,18.839,0,0,1,4.152-8.908,16.322,16.322,0,0,1,6.662-4.615A21.37,21.37,0,0,1,58.289,512.919Z" transform="translate(-41.53 -490.516)" fill="#07b6d5"/></g></g></svg>